<svg xmlns="http://www.w3.org/2000/svg" width="78.988" height="132.799" viewBox="0 0 78.988 132.799">
  <defs>
    <style>
      .cls-1 {
        fill: #fff;
        fill-rule: evenodd;
      }
    </style>
  </defs>
  <path id="iconfinder_27.Phone_290123" class="cls-1" d="M77.836,133.8H23.152C16.441,133.8,11,128.629,11,122.251V12.548C11,6.171,16.441,1,23.152,1H77.836c6.711,0,12.152,5.171,12.152,11.548v109.7C89.988,128.629,84.547,133.8,77.836,133.8ZM83.912,12.548a5.933,5.933,0,0,0-6.076-5.774H23.152a5.933,5.933,0,0,0-6.076,5.774V24.1H83.912Zm0,17.322H17.076v75.06H83.912Zm0,80.834H17.076v11.548a5.933,5.933,0,0,0,6.076,5.774H77.836a5.933,5.933,0,0,0,6.076-5.774ZM50.494,125.138a5.781,5.781,0,1,1,6.076-5.774A5.933,5.933,0,0,1,50.494,125.138ZM29.228,38.53H35.3a2.965,2.965,0,0,1,3.038,2.887v5.774A2.965,2.965,0,0,1,35.3,50.078H29.228a2.965,2.965,0,0,1-3.038-2.887V41.417A2.965,2.965,0,0,1,29.228,38.53Zm0,20.209H35.3a2.965,2.965,0,0,1,3.038,2.887V67.4A2.963,2.963,0,0,1,35.3,70.287H29.228A2.963,2.963,0,0,1,26.19,67.4V61.626A2.965,2.965,0,0,1,29.228,58.739Zm0,20.209H35.3a2.963,2.963,0,0,1,3.038,2.887v5.774A2.963,2.963,0,0,1,35.3,90.5H29.228a2.963,2.963,0,0,1-3.038-2.887V81.834A2.963,2.963,0,0,1,29.228,78.947ZM47.456,38.53h6.076a2.965,2.965,0,0,1,3.038,2.887v5.774a2.965,2.965,0,0,1-3.038,2.887H47.456a2.965,2.965,0,0,1-3.038-2.887V41.417A2.965,2.965,0,0,1,47.456,38.53Zm0,20.209h6.076a2.965,2.965,0,0,1,3.038,2.887V67.4a2.963,2.963,0,0,1-3.038,2.887H47.456A2.963,2.963,0,0,1,44.418,67.4V61.626A2.965,2.965,0,0,1,47.456,58.739Zm0,20.209h6.076a2.963,2.963,0,0,1,3.038,2.887v5.774A2.963,2.963,0,0,1,53.532,90.5H47.456a2.963,2.963,0,0,1-3.038-2.887V81.834A2.963,2.963,0,0,1,47.456,78.947ZM65.684,38.53H71.76A2.965,2.965,0,0,1,74.8,41.417v5.774a2.965,2.965,0,0,1-3.038,2.887H65.684a2.965,2.965,0,0,1-3.038-2.887V41.417A2.965,2.965,0,0,1,65.684,38.53Zm0,20.209H71.76A2.965,2.965,0,0,1,74.8,61.626V67.4a2.963,2.963,0,0,1-3.038,2.887H65.684A2.963,2.963,0,0,1,62.646,67.4V61.626A2.965,2.965,0,0,1,65.684,58.739ZM41.38,12.548H59.608a2.891,2.891,0,1,1,0,5.774H41.38a2.891,2.891,0,1,1,0-5.774Z" transform="translate(-11 -1)"/>
</svg>
