<svg xmlns="http://www.w3.org/2000/svg" width="163.806" height="121.493" viewBox="0 0 163.806 121.493">
  <defs>
    <style>
      .cls-1 {
        fill: #fff;
        fill-rule: evenodd;
      }
    </style>
  </defs>
  <path id="iconfinder_46.Calendar_290104" class="cls-1" d="M150.562,126.493H15.244C7.378,126.493,1,120.767,1,113.7V17.789C1,10.726,7.378,5,15.244,5H150.562c7.866,0,14.244,5.726,14.244,12.789V113.7C164.806,120.767,158.428,126.493,150.562,126.493Zm7.122-108.7c0-3.53-3.191-6.394-7.122-6.394H15.244c-3.931,0-7.122,2.865-7.122,6.394V36.972H157.684Zm0,25.578H8.122V113.7c0,3.53,3.191,6.394,7.122,6.394H150.562c3.931,0,7.122-2.865,7.122-6.394ZM143.44,88.127h-7.122a3.393,3.393,0,0,1-3.561-3.2V78.535a3.4,3.4,0,0,1,3.561-3.2h7.122a3.393,3.393,0,0,1,3.561,3.2V84.93A3.391,3.391,0,0,1,143.44,88.127Zm0-22.38h-7.122a3.393,3.393,0,0,1-3.561-3.2V56.155a3.393,3.393,0,0,1,3.561-3.2h7.122a3.391,3.391,0,0,1,3.561,3.2v6.394A3.391,3.391,0,0,1,143.44,65.747Zm-28.488,22.38H107.83a3.393,3.393,0,0,1-3.561-3.2V78.535a3.4,3.4,0,0,1,3.561-3.2h7.122a3.393,3.393,0,0,1,3.561,3.2V84.93A3.391,3.391,0,0,1,114.952,88.127Zm0-22.38H107.83a3.393,3.393,0,0,1-3.561-3.2V56.155a3.393,3.393,0,0,1,3.561-3.2h7.122a3.391,3.391,0,0,1,3.561,3.2v6.394A3.391,3.391,0,0,1,114.952,65.747ZM86.464,88.127H79.342a3.391,3.391,0,0,1-3.561-3.2V78.535a3.393,3.393,0,0,1,3.561-3.2h7.122a3.393,3.393,0,0,1,3.561,3.2V84.93A3.391,3.391,0,0,1,86.464,88.127Zm0-22.38H79.342a3.391,3.391,0,0,1-3.561-3.2V56.155a3.391,3.391,0,0,1,3.561-3.2h7.122a3.391,3.391,0,0,1,3.561,3.2v6.394A3.391,3.391,0,0,1,86.464,65.747ZM57.976,110.507H50.854a3.391,3.391,0,0,1-3.561-3.2v-6.394a3.391,3.391,0,0,1,3.561-3.2h7.122a3.391,3.391,0,0,1,3.561,3.2v6.394A3.391,3.391,0,0,1,57.976,110.507Zm0-22.38H50.854a3.391,3.391,0,0,1-3.561-3.2V78.535a3.393,3.393,0,0,1,3.561-3.2h7.122a3.393,3.393,0,0,1,3.561,3.2V84.93A3.391,3.391,0,0,1,57.976,88.127Zm0-22.38H50.854a3.391,3.391,0,0,1-3.561-3.2V56.155a3.391,3.391,0,0,1,3.561-3.2h7.122a3.391,3.391,0,0,1,3.561,3.2v6.394A3.391,3.391,0,0,1,57.976,65.747ZM29.488,110.507H22.366a3.391,3.391,0,0,1-3.561-3.2v-6.394a3.391,3.391,0,0,1,3.561-3.2h7.122a3.391,3.391,0,0,1,3.561,3.2v6.394A3.391,3.391,0,0,1,29.488,110.507Zm0-22.38H22.366a3.391,3.391,0,0,1-3.561-3.2V78.535a3.393,3.393,0,0,1,3.561-3.2h7.122a3.393,3.393,0,0,1,3.561,3.2V84.93A3.391,3.391,0,0,1,29.488,88.127Zm49.854,9.592h7.122a3.391,3.391,0,0,1,3.561,3.2v6.394a3.391,3.391,0,0,1-3.561,3.2H79.342a3.391,3.391,0,0,1-3.561-3.2v-6.394A3.391,3.391,0,0,1,79.342,97.718Z" transform="translate(-1 -5)"/>
</svg>
