<svg xmlns="http://www.w3.org/2000/svg" width="149.016" height="132.799" viewBox="0 0 149.016 132.799">
  <defs>
    <style>
      .cls-1 {
        fill: #fff;
        fill-rule: evenodd;
      }
    </style>
  </defs>
  <path id="iconfinder_07.Wallet_290143" class="cls-1" d="M150.016,120.608h0a16.2,16.2,0,0,1-16.2,16.2H17.2A16.2,16.2,0,0,1,1,120.608V26.663A12.958,12.958,0,0,1,13.958,13.7H79.3l26.237-9.5a3.208,3.208,0,0,1,4.108,1.908l2.763,7.6H124.1a12.959,12.959,0,0,1,12.958,12.958v6.479h0A12.958,12.958,0,0,1,150.016,46.1ZM13.958,20.184h0a6.479,6.479,0,1,0,0,12.958H25.73c.042-.016.068-.052.11-.068l35.576-12.89Zm94.2.586-3.44-9.472h0L98.068,13.7h.01L80.215,20.184h-.032L44.422,33.142h68.23Zm22.424,5.893a6.481,6.481,0,0,0-6.479-6.479h-9.339l4.71,12.958h11.108Zm6.479,12.958H13.958a12.813,12.813,0,0,1-6.479-1.8v82.785a9.72,9.72,0,0,0,9.718,9.718H133.819a9.718,9.718,0,0,0,9.718-9.718V97.931H130.579a12.958,12.958,0,0,1,0-25.916h12.958V46.1A6.481,6.481,0,0,0,137.058,39.621Zm6.479,51.832V78.495H130.579a6.479,6.479,0,0,0,0,12.958Zm-12.958-9.718h6.479v6.479h-6.479Z" transform="translate(-1 -4.006)"/>
</svg>
